# xmcd
#
# Track frame offsets: 
#        150
#        16355
#        35922
#        59892
#        77962
#        101272
#        122902
#        140670
#        161637
#        181115
#
# Disc length: 2688 seconds
#
# Revision: 2
# Processed by: cddbd v1.5.2PL0 Copyright (c) Steve Scherf et al.
# Submitted via: ExactAudioCopy v0.95b2
#
DISCID=8d0a7e0a
DTITLE=Uptown Horns Revue - Uptown Horns Revue
DYEAR=1995
DGENRE=Blues
TTITLE0=Sugar Melts When It's Wet
TTITLE1=Never Goin Down That Road Again
TTITLE2=Imaginary People
TTITLE3=Tell Me What You Want
TTITLE4=Trust Me
TTITLE5=You Don't Realize
TTITLE6=Marylou's
TTITLE7=I'm Dealing'
TTITLE8=Open the Door to Your Heart
TTITLE9=Odds Are Good That The Goods Are Odd
EXTD=
EXTT0=
EXTT1=
EXTT2=
EXTT3=
EXTT4=
EXTT5=
EXTT6=
EXTT7=
EXTT8=
EXTT9=
PLAYORDER=
